<?xml version="1.0" encoding="UTF-8" standalone="no"?>
<svg width="20px" height="16px" viewBox="0 0 20 16" version="1.1" xmlns="http://www.w3.org/2000/svg" xmlns:xlink="http://www.w3.org/1999/xlink" xmlns:sketch="http://www.bohemiancoding.com/sketch/ns">
    <!-- Generator: sketchtool 3.4 (381) - http://www.bohemiancoding.com/sketch -->
    <title>ic_mail</title>
    <desc>Created with sketchtool.</desc>
    <defs></defs>
    <g id="Page-1" stroke="none" stroke-width="1" fill="none" fill-rule="evenodd" sketch:type="MSPage">
        <g id="Michelada-Desktop" sketch:type="MSArtboardGroup" transform="translate(-1255.000000, -87.000000)">
            <g id="Header" sketch:type="MSLayerGroup" transform="translate(135.000000, 70.000000)">
                <g id="Rectangle-6-+-Get-the-spicy-detail" transform="translate(974.000000, 0.000000)" sketch:type="MSShapeGroup">
                    <g id="Cheer-with-us-+-ic_mail_white_48px" transform="translate(28.000000, 13.000000)">
                        <g id="ic_mail" transform="translate(116.000000, 0.000000)">
                            <g id="Group">
                                <path d="M20,4 L4,4 C2.9,4 2.01,4.9 2.01,6 L2,18 C2,19.1 2.9,20 4,20 L20,20 C21.1,20 22,19.1 22,18 L22,6 C22,4.9 21.1,4 20,4 L20,4 Z M20,8 L12,13 L4,8 L4,6 L12,11 L20,6 L20,8 L20,8 Z" id="Shape" fill="#292C52"></path>
                                <path d="M0,0 L24,0 L24,24 L0,24 L0,0 Z" id="Shape"></path>
                            </g>
                        </g>
                    </g>
                </g>
            </g>
        </g>
    </g>
</svg>
