<?xml version="1.0" encoding="UTF-8" standalone="no"?>
<svg width="454px" height="36px" viewBox="0 0 454 36" version="1.1" xmlns="http://www.w3.org/2000/svg" xmlns:xlink="http://www.w3.org/1999/xlink" xmlns:sketch="http://www.bohemiancoding.com/sketch/ns">
    <!-- Generator: Sketch 3.3.1 (12002) - http://www.bohemiancoding.com/sketch -->
    <title>Michelada Text</title>
    <desc>Created with Sketch.</desc>
    <defs></defs>
    <g id="Page-1" stroke="none" stroke-width="1" fill="none" fill-rule="evenodd" sketch:type="MSPage">
        <g id="michelada-horizontal" sketch:type="MSLayerGroup" transform="translate(-164.000000, -50.000000)" fill="#F15B29">
            <g id="Michelada-Text" transform="translate(164.000000, 50.000000)" sketch:type="MSShapeGroup">
                <path d="M44.903,35.027 L38.76,35.027 L38.606,7.465 L22.79,30.29 L7.023,7.248 L6.87,7.465 L6.87,35.027 L0.727,35.027 L0.727,1.527 L9.949,1.527 L22.786,20.472 L35.661,1.527 L44.903,1.527 L44.903,35.027 L44.903,35.027 Z" id="Shape"></path>
                <path d="M61.794,35.027 L55.651,35.027 L55.651,1.527 L61.794,1.527 L61.794,35.027 L61.794,35.027 Z" id="Shape"></path>
                <path d="M110.218,9.59 L104.587,11.659 C101.208,8.099 96.926,6.321 91.739,6.321 C87.266,6.321 83.702,7.418 81.04,9.609 C78.378,11.8 77.048,14.635 77.048,18.114 C77.048,21.702 78.378,24.581 81.04,26.756 C83.702,28.929 87.302,30.017 91.841,30.017 C97.097,30.017 101.38,28.203 104.69,24.571 L109.962,27.567 C105.32,33.123 99.231,35.901 91.69,35.901 C85.41,35.901 80.333,34.24 76.461,30.918 C72.587,27.595 70.65,23.338 70.65,18.144 C70.65,12.734 72.851,8.323 77.254,4.909 C81.075,1.93 85.768,0.443 91.33,0.443 C99.144,0.439 105.44,3.488 110.218,9.59 L110.218,9.59 Z" id="Shape"></path>
                <path d="M155.415,35.027 L149.272,35.027 L149.272,20.538 L124.958,20.538 L124.958,35.027 L118.815,35.027 L118.815,1.527 L124.958,1.527 L124.958,14.654 L149.272,14.654 L149.272,1.527 L155.415,1.527 L155.415,35.027 L155.415,35.027 Z" id="Shape"></path>
                <path d="M200.051,35.027 L166.165,35.027 L166.165,1.527 L198.874,1.527 L198.874,7.411 L172.307,7.411 L172.307,14.654 L190.786,14.654 L190.786,20.538 L172.307,20.538 L172.307,29.143 L200.051,29.143 L200.051,35.027 L200.051,35.027 L200.051,35.027 Z" id="Shape"></path>
                <path d="M238.44,35.027 L207.983,35.027 L207.983,1.527 L214.126,1.527 L214.126,29.143 L238.44,29.143 L238.44,35.027 L238.44,35.027 Z" id="Shape"></path>
                <path d="M265.161,1.527 L257.532,1.527 L240.385,35.027 L247.149,35.027 L261.378,7.115 L268.857,21.954 L264.669,21.954 C264.678,22.386 264.646,27.277 264.731,27.838 L271.924,27.838 L275.547,35.027 L282.308,35.027 L265.161,1.527 L265.161,1.527 Z" id="Shape"></path>
                <path d="M308.72,1.527 C314.249,1.527 318.684,3.072 322.031,6.158 C325.375,9.244 327.048,13.204 327.048,18.033 C327.048,22.428 325.289,26.637 321.777,30.669 C320.787,31.832 319.216,32.83 317.068,33.665 C314.714,34.574 312.271,35.027 309.749,35.027 L288.35,35.027 L288.35,1.527 L308.72,1.527 L308.72,1.527 L308.72,1.527 Z M310.153,29.145 C313.156,29.145 315.622,28.141 317.549,26.135 C319.477,24.128 320.443,21.573 320.443,18.469 C320.443,15.149 319.42,12.475 317.372,10.449 C315.324,8.423 312.593,7.411 309.182,7.411 L294.492,7.411 L294.492,29.143 L310.153,29.145 L310.153,29.145 Z" id="Shape"></path>
                <path d="M355.505,1.527 L347.878,1.527 L330.732,35.027 L337.493,35.027 L351.722,7.115 L359.154,21.409 L354.584,21.409 C354.586,21.427 354.463,27.048 354.584,28.219 L361.896,28.219 L365.894,35.029 L372.656,35.029 L355.505,1.527 L355.505,1.527 Z" id="Shape"></path>
                <path d="M386.371,35.027 L378.435,35.027 L378.435,29.089 L386.371,29.089 L386.371,35.027 L386.371,35.027 Z" id="Shape"></path>
                <path d="M403.006,35.027 L396.864,35.027 L396.864,1.527 L403.006,1.527 L403.006,35.027 L403.006,35.027 Z" id="Shape"></path>
                <path d="M453.271,18.196 C453.271,23.678 451.071,28.146 446.667,31.594 C442.912,34.535 438.223,36.006 432.592,36.006 C426.961,36.006 422.251,34.535 418.463,31.594 C414.061,28.182 411.859,23.714 411.859,18.196 C411.859,12.748 414.078,8.319 418.513,4.905 C422.405,1.89 427.095,0.384 432.59,0.384 C438.049,0.384 442.725,1.892 446.615,4.905 C451.054,8.355 453.271,12.786 453.271,18.196 L453.271,18.196 Z M446.874,18.168 C446.874,14.711 445.54,11.863 442.875,9.625 C440.208,7.387 436.771,6.266 432.566,6.266 C428.328,6.266 424.867,7.395 422.182,9.654 C419.496,11.911 418.157,14.749 418.157,18.17 C418.157,21.738 419.472,24.622 422.105,26.824 C424.738,29.027 428.225,30.127 432.566,30.127 C436.875,30.127 440.336,29.027 442.952,26.824 C445.567,24.62 446.874,21.736 446.874,18.168 L446.874,18.168 Z" id="Shape"></path>
            </g>
        </g>
    </g>
</svg>