<?xml version="1.0" encoding="UTF-8" standalone="no"?>
<svg width="140px" height="142px" viewBox="0 0 140 142" version="1.1" xmlns="http://www.w3.org/2000/svg" xmlns:xlink="http://www.w3.org/1999/xlink" xmlns:sketch="http://www.bohemiancoding.com/sketch/ns">
    <!-- Generator: Sketch 3.3.1 (12002) - http://www.bohemiancoding.com/sketch -->
    <title>Michelada White Logo</title>
    <desc>Created with Sketch.</desc>
    <defs></defs>
    <g id="Page-1" stroke="none" stroke-width="1" fill="none" fill-rule="evenodd" sketch:type="MSPage">
        <g id="michelada-white-horizontal" sketch:type="MSLayerGroup" transform="translate(2.000000, 2.000000)">
            <g id="Michelada-White-Logo" sketch:type="MSShapeGroup">
                <path d="M66.1687552,0.203193103 L0.495020979,33.6006207 C0.495020979,33.6006207 0.458881119,109.746641 0.347608392,111.7662 C2.46844755,113.371283 64.9965874,137.823931 64.9965874,137.823931 C64.9965874,137.823931 134.791217,113.184269 135.268168,111.766676 C136.209231,108.68309 135.12028,36.4120138 135.12028,36.4120138 C135.12028,36.4120138 73.187972,4.57398621 65.0793287,0.178448276" id="Shape" stroke="#FFFFFF" stroke-width="3"></path>
                <path d="M130.016951,40.3159862 C130.52386,51.5406207 130.114434,101.873028 129.963217,106.437497 C123.132783,89.3064621 105.011497,55.0182207 105.011497,55.0182207 L65.0973986,71.9903172" id="Shape" stroke="#FFFFFF"></path>
                <path d="M15.0493986,84.3541655 L43.9251469,92.8425931" id="Shape" stroke="#FFFFFF" stroke-width="2.0174"></path>
                <path d="M43.4344056,92.9539448 L65.3475245,71.8546966" id="Shape" stroke="#FFFFFF" stroke-width="2.012"></path>
                <path d="M117.858741,79.9129448 L91.0657902,92.9886828" id="Shape" stroke="#FFFFFF" stroke-width="1.9692"></path>
                <path d="M91.5688951,92.9791655 L64.7545455,71.8451793" id="Shape" stroke="#FFFFFF" stroke-width="2"></path>
                <path d="M130.026462,40.3159862 L99.5263217,25.7983862 L65.0836084,71.411669 L30.6404196,25.6518207 C30.6404196,25.6518207 9.70497902,35.8838069 5.39577622,37.8933724 C5.54413986,49.2926483 5.39244755,103.35391 5.54413986,107.918379 C12.375049,90.7873448 27.7088112,53.7757448 27.7088112,53.7757448 L65.0831329,71.9988828 L130.010769,40.3188414" id="Shape" fill="#FFFFFF"></path>
            </g>
        </g>
    </g>
</svg>