<?xml version="1.0" encoding="UTF-8" standalone="no"?>
<svg width="196px" height="305px" viewBox="0 0 196 305" version="1.1" xmlns="http://www.w3.org/2000/svg" xmlns:xlink="http://www.w3.org/1999/xlink" xmlns:sketch="http://www.bohemiancoding.com/sketch/ns">
    <!-- Generator: Sketch 3.4.2 (15857) - http://www.bohemiancoding.com/sketch -->
    <title>sprites</title>
    <desc>Created with Sketch.</desc>
    <defs></defs>
     <symbol id="Page-1" stroke="none" stroke-width="1" fill="none" fill-rule="evenodd" sketch:type="MSPage">
         <symbol id="sprites" sketch:type="MSLayerGroup">
             <symbol id="michelada-text" transform="translate(65.000000, 269.000000)" fill="#FFFFFF" sketch:type="MSShapeGroup">
                <path d="M3.10344802,15.2103448 L3.10344802,9.18965515 C3.10344802,7.7 3.76551733,6.93448272 5.00689681,6.93448272 C6.22758632,6.93448272 6.55862059,7.63793099 6.55862059,9.18965515 L6.55862059,15.2103448 L9.76551727,15.2103448 L9.76551727,9.18965515 C9.76551727,7.7 10.4275858,6.93448272 11.6689653,6.93448272 C12.8896548,6.93448272 13.2206898,7.63793099 13.2206898,9.18965515 L13.2206898,15.2103448 L16.4068965,15.2103448 L16.4068965,7.88620689 C16.4068965,5.29999995 15.0000003,3.89310341 12.4965514,3.89310341 C11.1103451,3.89310341 10.2206899,4.45172414 9.06206877,5.6724138 C8.33793106,4.47241381 7.32413826,3.89310341 5.97931042,3.89310341 C4.63448258,3.89310341 3.641379,4.45172414 2.95862047,5.58965519 L2.95862047,4.09999996 L-1.0658141e-14,4.09999996 L-1.0658141e-14,15.2103448 L3.10344802,15.2103448 L3.10344802,15.2103448 L3.10344802,15.2103448 Z M21.9103447,3.08620686 L21.9103447,0.5 L18.6620688,0.5 L18.6620688,3.08620686 L21.9103447,3.08620686 L21.9103447,3.08620686 L21.9103447,3.08620686 Z M21.9103447,15.2103448 L21.9103447,4.09999996 L18.6620688,4.09999996 L18.6620688,15.2103448 L21.9103447,15.2103448 L21.9103447,15.2103448 L21.9103447,15.2103448 Z M31.6344831,11.237931 C31.0965521,11.962069 30.3724136,12.3344827 29.4827584,12.3344827 C27.9103446,12.3344827 26.8344827,11.2793104 26.8344827,9.58275859 C26.8344827,8.0517241 27.9103446,6.93448272 29.37931,6.93448272 C30.4551728,6.93448272 31.2206897,7.34827583 31.6758623,8.11379311 L35.1310348,8.11379311 C34.2413796,5.29999995 32.1931033,3.76896554 29.4,3.76896554 C27.8068963,3.76896554 26.4413792,4.34827586 25.3034481,5.50689651 C24.2068969,6.62413789 23.6068968,8.03103451 23.6068968,9.58275859 C23.6068968,11.1344828 24.165517,12.5827586 25.2413797,13.7206897 C26.3793101,14.9206897 27.7448279,15.5 29.4413792,15.5 C32.1517241,15.5 34.303448,13.9068966 35.1310348,11.237931 L31.6344831,11.237931 L31.6344831,11.237931 L31.6344831,11.237931 Z M39.9517245,15.2103448 L39.9517245,9.18965515 C39.9517245,7.7 40.634483,6.93448272 41.9172417,6.93448272 C43.1793103,6.93448272 43.5103446,7.63793099 43.5103446,9.18965515 L43.5103446,15.2103448 L46.7793105,15.2103448 L46.7793105,7.88620689 C46.7793105,5.34137929 45.2896551,3.89310341 42.9931036,3.89310341 C41.5862066,3.89310341 40.5517238,4.4103448 39.8689653,5.48620691 L39.8689653,0.5 L36.7448278,0.5 L36.7448278,15.2103448 L39.9517245,15.2103448 L39.9517245,15.2103448 L39.9517245,15.2103448 Z M51.5379309,8.48620688 C51.7655176,7.43103451 52.7379312,6.72758616 54.1034483,6.72758616 C55.4068969,6.72758616 56.3379313,7.34827583 56.7310348,8.48620688 L51.5379309,8.48620688 L51.5379309,8.48620688 L51.5379309,8.48620688 Z M55.9034487,11.9827586 C55.4068969,12.4172413 54.8689659,12.6034483 54.2068966,12.6034483 C52.7793104,12.6034483 51.9310344,11.9827586 51.6413793,10.8034482 L60.0206898,10.8034482 L60.0206898,10.4517242 C60.0206898,6.31379313 57.6,3.76896554 54.0620691,3.76896554 C52.5517245,3.76896554 51.0827583,4.38965512 49.9655172,5.50689651 C48.8689652,6.60344829 48.2689658,8.03103451 48.2689658,9.58275859 C48.2689658,11.1551724 48.827586,12.562069 49.903448,13.7 C51.0413791,14.9 52.4068969,15.4793103 54.1034483,15.4793103 C56.5862072,15.4793103 58.4275861,14.3 59.5034481,11.9827586 L55.9034487,11.9827586 L55.9034487,11.9827586 L55.9034487,11.9827586 Z M61.675862,0.5 L61.675862,15.2103448 L64.9241378,15.2103448 L64.9241378,0.5 L61.675862,0.5 L61.675862,0.5 L61.675862,0.5 Z M75.3310347,15.2103448 L78.4965522,15.2103448 L78.4965522,4.09999996 L75.2275864,4.09999996 L75.2275864,5.34137929 C74.4827587,4.38965512 73.4482759,3.93448275 72.1034481,3.93448275 C70.6965518,3.93448275 69.4344831,4.45172414 68.4000004,5.46551724 C67.2413793,6.58275862 66.6206899,8.01034484 66.6206899,9.60344826 C66.6206899,11.3413793 67.2827585,12.8310345 68.5655171,13.9689655 C69.5379315,14.8379311 70.6965518,15.2724138 72.0413797,15.2724138 C73.3655175,15.2724138 74.3586211,14.9206897 75.3310347,13.9689655 L75.3310347,15.2103448 L75.3310347,15.2103448 L75.3310347,15.2103448 Z M69.889655,9.58275859 C69.889655,8.09310344 71.0896553,6.83103444 72.6413791,6.83103444 C74.1724136,6.83103444 75.3517239,8.03103451 75.3517239,9.62413793 C75.3517239,11.1551724 74.1724136,12.3137931 72.7655174,12.3137931 C71.0896553,12.3137931 69.889655,11.1344828 69.889655,9.58275859 L69.889655,9.58275859 L69.889655,9.58275859 L69.889655,9.58275859 Z M83.2965519,9.58275859 C83.2965519,8.09310344 84.4965522,6.83103444 86.0482759,6.83103444 C87.5793105,6.83103444 88.7586208,8.03103451 88.7586208,9.62413793 C88.7586208,11.1551724 87.5793105,12.3137931 86.1724143,12.3137931 C84.4965522,12.3137931 83.2965519,11.1344828 83.2965519,9.58275859 L83.2965519,9.58275859 L83.2965519,9.58275859 L83.2965519,9.58275859 Z M88.7379308,15.2103448 L91.9034483,15.2103448 L91.9034483,0.5 L88.6344833,0.5 L88.6344833,5.34137929 C87.8896556,4.38965512 86.8551728,3.93448275 85.510345,3.93448275 C84.1034487,3.93448275 82.8413793,4.45172414 81.8068965,5.46551724 C80.6482761,6.58275862 80.027586,8.01034484 80.027586,9.60344826 C80.027586,11.3413793 80.6896553,12.8310345 81.972414,13.9689655 C82.9448276,14.8379311 84.1034487,15.2724138 85.4482758,15.2724138 C86.7724137,15.2724138 87.7655172,14.9206897 88.7379308,13.9689655 L88.7379308,15.2103448 L88.7379308,15.2103448 L88.7379308,15.2103448 Z M102.144828,15.2103448 L105.310345,15.2103448 L105.310345,4.09999996 L102.041379,4.09999996 L102.041379,5.34137929 C101.296552,4.38965512 100.262069,3.93448275 98.9172418,3.93448275 C97.5103448,3.93448275 96.2482761,4.45172414 95.2137934,5.46551724 C94.0551723,6.58275862 93.4344829,8.01034484 93.4344829,9.60344826 C93.4344829,11.3413793 94.0965522,12.8310345 95.3793109,13.9689655 C96.3517245,14.8379311 97.5103448,15.2724138 98.8551727,15.2724138 C100.179311,15.2724138 101.172414,14.9206897 102.144828,13.9689655 L102.144828,15.2103448 L102.144828,15.2103448 L102.144828,15.2103448 Z M96.7034487,9.58275859 C96.7034487,8.09310344 97.9034483,6.83103444 99.4551728,6.83103444 C100.986207,6.83103444 102.165518,8.03103451 102.165518,9.62413793 C102.165518,11.1551724 100.986207,12.3137931 99.5793104,12.3137931 C97.9034483,12.3137931 96.7034487,11.1344828 96.7034487,9.58275859 L96.7034487,9.58275859 L96.7034487,9.58275859 L96.7034487,9.58275859 Z M111.165518,15.2103448 L111.165518,11.8172414 L107.813793,11.8172414 L107.813793,15.2103448 L111.165518,15.2103448 L111.165518,15.2103448 L111.165518,15.2103448 Z M117.041379,3.08620686 L117.041379,0.5 L113.793103,0.5 L113.793103,3.08620686 L117.041379,3.08620686 L117.041379,3.08620686 L117.041379,3.08620686 Z M117.041379,15.2103448 L117.041379,4.09999996 L113.793103,4.09999996 L113.793103,15.2103448 L117.041379,15.2103448 L117.041379,15.2103448 L117.041379,15.2103448 Z M121.965517,9.66551727 C121.965517,8.13448278 123.144828,6.91379313 124.593104,6.91379313 C126.04138,6.91379313 127.22069,8.13448278 127.22069,9.66551727 C127.22069,11.1758621 126.04138,12.3965518 124.593104,12.3965518 C123.165517,12.3965518 121.965517,11.1758621 121.965517,9.66551727 L121.965517,9.66551727 L121.965517,9.66551727 L121.965517,9.66551727 Z M118.737931,9.62413793 C118.737931,11.1758621 119.296552,12.6034483 120.372414,13.7206897 C121.510345,14.9206897 122.875862,15.5 124.572414,15.5 C126.248276,15.5 127.655173,14.9 128.793104,13.762069 C129.910345,12.6448276 130.468966,11.2586207 130.468966,9.58275859 C130.468966,8.07241377 129.827587,6.54137928 128.648276,5.4241379 C127.531035,4.36896553 126.144827,3.8103448 124.531035,3.8103448 C123.02069,3.8103448 121.551725,4.43103447 120.434483,5.54827585 C119.337931,6.64482756 118.737931,8.07241377 118.737931,9.62413793 L118.737931,9.62413793 L118.737931,9.62413793 L118.737931,9.62413793 Z"></path>
             </symbol>
             <symbol id="michelada-logo" transform="translate(0.000000, 249.000000)" sketch:type="MSShapeGroup">
                <path d="M0,27.5029956 C0,12.3135477 12.4107432,2.84217094e-14 27.7201697,2.84217094e-14 C43.0295135,2.84217094e-14 55.4402567,12.3135477 55.4402567,27.5029956 C55.4402567,42.6925255 43.0295135,55.0060733 27.7201697,55.0060733 C12.4107432,55.0060733 0,42.6925255 0,27.5029956" id="Red-circle" fill="#EB3434"></path>
                <path d="M0.442973026,22.6022089 C0.666805371,22.915591 0.916784739,23.2111902 1.19170669,23.4839591 C3.3615825,25.6368414 6.70761093,25.910764 9.17739907,24.306794 C9.17739907,24.306794 10.0718358,23.4193675 10.5190541,22.9756541 L22.9047779,10.687004 C25.391692,8.2194842 29.4239198,8.2194842 31.9108339,10.687004 C34.3978308,13.1544417 34.3978308,17.1550088 31.9108339,19.6225286 L21.1203617,30.3284125 C18.6335303,32.7959323 18.5416124,36.9163457 21.0285265,39.3837834 C25.4801815,43.2279921 29.601125,38.9250138 30.5882649,37.9456048 L38.1447903,30.4482587 C40.6317871,27.980821 44.6639321,27.980821 47.1508463,30.4482587 C49.6378431,32.9157786 49.6378431,36.9163457 47.1508463,39.3837834 L42.6083125,43.890742 C40.5852973,45.8979807 40.263665,48.9633996 41.5527425,51.3653714 C37.4816993,53.6957389 32.7578656,55.0290575 27.7201697,55.0290575 C12.4107432,55.0290575 0,42.7155097 0,27.5259798 C0,25.8452492 0.151953254,24.1997303 0.442973026,22.6022089 L0.442973026,22.6022089 Z" id="Splash" fill="#F9D026"></path>
                <path d="M39.3633029,19.584933 C39.3633029,16.4472591 41.9269945,13.9037272 45.0894353,13.9037272 C48.251876,13.9037272 50.815485,16.4472591 50.815485,19.584933 C50.815485,22.7226069 48.251876,25.2661388 45.0894353,25.2661388 C41.9269945,25.2661388 39.3633029,22.7226069 39.3633029,19.584933" id="Yellow-Dot" fill="#F9D026"></path>
             </symbol>
             <symbol id="github" transform="translate(1.500000, 91.000000)" fill="#f9d026" sketch:type="MSShapeGroup">
                <path d="M3.28571429,23.4917293 C5.10827068,26.0225564 7.50526316,27.7774436 10.4075188,28.7233083 C10.7458647,28.7909774 10.9819549,28.756391 11.1503759,28.5879699 C11.318797,28.4526316 11.3864662,28.2511278 11.3864662,28.0481203 L11.3864662,27.0345865 L11.3864662,25.3473684 L10.9473684,25.4150376 C10.6781955,25.4827068 10.3398496,25.4827068 9.90225564,25.4827068 C9.4962406,25.4827068 9.05714286,25.4496241 8.58496241,25.3473684 C8.14586466,25.2796992 7.70827068,25.0781955 7.33684211,24.7744361 C6.93082707,24.5037594 6.66165414,24.0992481 6.49323308,23.6255639 L6.32330827,23.1879699 C6.18947368,22.9172932 5.98646617,22.5804511 5.71578947,22.2421053 C5.44661654,21.8706767 5.17593985,21.6345865 4.90676692,21.5338346 L4.77142857,21.4330827 C4.67067669,21.3654135 4.60300752,21.2977444 4.53533835,21.1954887 C4.46766917,21.1293233 4.4,21.0270677 4.36541353,20.9263158 C4.33233083,20.8586466 4.36541353,20.7909774 4.46766917,20.7233083 C4.53533835,20.6556391 4.73684211,20.6225564 5.0075188,20.6225564 L5.37894737,20.6902256 C5.61503759,20.7578947 5.9518797,20.8917293 6.29022556,21.1293233 C6.66165414,21.3984962 6.96541353,21.7368421 7.23458647,22.1067669 C7.50526316,22.6481203 7.84210526,23.0180451 8.28120301,23.2887218 C8.68721805,23.5593985 9.09172932,23.6932331 9.4962406,23.6932331 C9.90225564,23.6932331 10.2721805,23.6601504 10.5774436,23.6255639 C10.8796992,23.5593985 11.1503759,23.4571429 11.4210526,23.3218045 C11.5218045,22.4781955 11.8255639,21.837594 12.3323308,21.3984962 C11.6225564,21.2977444 10.9819549,21.1954887 10.4075188,21.0616541 C9.83458647,20.8917293 9.26015038,20.6556391 8.65263158,20.318797 C8.04511278,19.9804511 7.53834586,19.5428571 7.13383459,19.0691729 C6.72932331,18.5639098 6.39097744,17.8887218 6.12180451,17.0781955 C5.88571429,16.2676692 5.75037594,15.3233083 5.75037594,14.243609 C5.75037594,12.724812 6.25714286,11.4421053 7.23458647,10.3609023 C6.76240602,9.21353383 6.83007519,7.93082707 7.36992481,6.51428571 C7.74135338,6.41203008 8.28120301,6.51428571 8.99097744,6.78345865 C9.69924812,7.05413534 10.2390977,7.29022556 10.5774436,7.49172932 C10.8796992,7.69473684 11.1503759,7.86315789 11.3533835,8.03308271 C12.5338346,7.69473684 13.7488722,7.52631579 14.9984962,7.52631579 C16.2135338,7.52631579 17.4285714,7.69473684 18.6105263,8.03308271 L19.318797,7.5593985 C19.7909774,7.2556391 20.3984962,6.98646617 21.0406015,6.75037594 C21.7157895,6.47969925 22.2210526,6.41203008 22.5593985,6.51428571 C23.1323308,7.93082707 23.2,9.21353383 22.7278195,10.3609023 C23.7067669,11.4421053 24.2135338,12.724812 24.2135338,14.243609 C24.2135338,15.3233083 24.0781955,16.2676692 23.8421053,17.0781955 C23.5714286,17.9218045 23.2345865,18.5639098 22.8285714,19.0691729 C22.4240602,19.5428571 21.9172932,19.9804511 21.3097744,20.318797 C20.7022556,20.6556391 20.0947368,20.8917293 19.5218045,21.0616541 C18.9473684,21.1954887 18.3067669,21.2977444 17.5969925,21.3984962 C18.2390977,21.9383459 18.5759398,22.8496241 18.5759398,24.0646617 L18.5759398,28.0481203 C18.5759398,28.2511278 18.643609,28.4526316 18.8120301,28.5879699 C18.9819549,28.756391 19.2180451,28.7909774 19.5548872,28.7233083 C22.4571429,27.7774436 24.8541353,26.0225564 26.6766917,23.4917293 C28.5338346,20.993985 29.4451128,18.1578947 29.4451128,15.0195489 C29.4451128,12.3864662 28.8030075,9.95639098 27.5203008,7.72932331 C26.2045113,5.53533835 24.4496241,3.77894737 22.2556391,2.46315789 C20.0270677,1.18045113 17.5969925,0.539849624 14.9984962,0.539849624 C12.3654135,0.539849624 9.93533835,1.18045113 7.70827068,2.46315789 C5.51428571,3.77894737 3.7593985,5.53533835 2.44210526,7.72932331 C1.1593985,9.95639098 0.518796992,12.3864662 0.518796992,15.0195489 C0.518796992,18.1578947 1.43007519,20.993985 3.28571429,23.4917293" id="Fill-172"></path>
             </symbol>
             <symbol id="map-marker" transform="translate(6.500000, 141.000000)" fill="#f9d026" sketch:type="MSShapeGroup">
                <path d="M0.721804511,13.6541353 L7.6075188,28.2360902 C7.81052632,28.675188 8.11428571,28.9789474 8.48571429,29.2150376 C8.89022556,29.4511278 9.32932331,29.5864662 9.76842105,29.5864662 C10.2075188,29.5864662 10.6451128,29.4511278 11.0511278,29.2150376 C11.4225564,28.9789474 11.7263158,28.675188 11.9278195,28.2360902 L18.8135338,13.6541353 C19.2195489,12.7774436 19.4210526,11.6631579 19.4210526,10.2796992 C19.4210526,7.64661654 18.4766917,5.3518797 16.5864662,3.49473684 C14.6962406,1.60451128 12.4345865,0.660150376 9.76842105,0.660150376 C7.10225564,0.660150376 4.8406015,1.60451128 2.95037594,3.49473684 C1.06015038,5.3518797 0.114285714,7.64661654 0.114285714,10.2796992 C0.114285714,11.6631579 0.317293233,12.7774436 0.721804511,13.6541353 L0.721804511,13.6541353 Z M9.76842105,5.48721805 C11.0842105,5.48721805 12.2315789,5.9593985 13.1774436,6.9037594 C14.1218045,7.84962406 14.5954887,8.96240602 14.5954887,10.2796992 C14.5954887,11.6285714 14.1218045,12.7428571 13.1774436,13.6887218 C12.2315789,14.6330827 11.0842105,15.1052632 9.76842105,15.1052632 C8.45112782,15.1052632 7.3037594,14.6330827 6.3593985,13.6887218 C5.41353383,12.7428571 4.94135338,11.6285714 4.94135338,10.2796992 C4.94135338,8.96240602 5.41353383,7.84962406 6.3593985,6.9037594 C7.3037594,5.9593985 8.45112782,5.48721805 9.76842105,5.48721805 L9.76842105,5.48721805 Z" id="Fill-30"></path>
             </symbol>
             <symbol id="twitter" transform="translate(1.500000, 192.000000)" fill="#f9d026" sketch:type="MSShapeGroup">
                <path d="M9.47067669,24.7368421 C11.6315789,24.7368421 13.6556391,24.4 15.5804511,23.724812 C17.4706767,23.0150376 19.0902256,22.1037594 20.4406015,20.956391 C21.756391,19.8090226 22.9383459,18.4932331 23.9172932,17.0075188 C24.8616541,15.4887218 25.6045113,13.9353383 26.0766917,12.3157895 C26.5503759,10.6962406 26.7864662,9.07518797 26.7864662,7.42105263 L26.7864662,6.64511278 C27.9669173,5.76842105 28.9804511,4.72180451 29.8240602,3.50676692 C28.6421053,3.97894737 27.4947368,4.31578947 26.312782,4.41804511 C27.6300752,3.6406015 28.5413534,2.52781955 28.9804511,1.07669173 C27.7984962,1.78496241 26.5157895,2.29172932 25.1323308,2.56090226 C23.9172932,1.27819549 22.4315789,0.637593985 20.6766917,0.637593985 C19.0225564,0.637593985 17.5714286,1.21052632 16.3894737,2.3924812 C15.2090226,3.6075188 14.6015038,5.02556391 14.6015038,6.71278195 C14.6015038,7.1518797 14.6691729,7.62406015 14.7699248,8.0962406 C12.2721805,7.99548872 9.94285714,7.35338346 7.74887218,6.2406015 C5.58947368,5.09323308 3.73233083,3.6075188 2.21353383,1.7518797 C1.67368421,2.6962406 1.36992481,3.70827068 1.36992481,4.82255639 C1.36992481,5.83458647 1.6406015,6.81353383 2.11278195,7.72481203 C2.61954887,8.60300752 3.26015038,9.3112782 4.1037594,9.88571429 C3.12481203,9.85112782 2.21353383,9.58195489 1.33684211,9.10977444 L1.33684211,9.17744361 C1.33684211,10.6616541 1.80902256,11.9443609 2.72030075,13.0586466 C3.66466165,14.1729323 4.81203008,14.8466165 6.23007519,15.1503759 C5.69022556,15.2857143 5.15037594,15.3533835 4.61052632,15.3533835 C4.27218045,15.3533835 3.90075188,15.3203008 3.46315789,15.2526316 C3.86766917,16.4676692 4.57593985,17.4796992 5.62255639,18.2571429 C6.66917293,19.0661654 7.85112782,19.4706767 9.16691729,19.4706767 C6.93984962,21.2270677 4.44210526,22.0706767 1.60601504,22.0706767 C1.06616541,22.0706767 0.593984962,22.0706767 0.154887218,22.0030075 C2.95639098,23.8255639 6.09473684,24.7368421 9.47067669,24.7368421" id="Fill-178"></path>
             </symbol>
             <symbol id="github-small" transform="translate(1.500000, 44.000000)" fill="#CECECE" sketch:type="MSShapeGroup">
                <path d="M2.19047619,15.6611529 C3.40551378,17.3483709 5.00350877,18.5182957 6.93834586,19.1488722 C7.16390977,19.193985 7.32130326,19.1709273 7.43358396,19.0586466 C7.54586466,18.9684211 7.59097744,18.8340852 7.59097744,18.6987469 L7.59097744,18.0230576 L7.59097744,16.8982456 L7.29824561,16.9433584 C7.11879699,16.9884712 6.89323308,16.9884712 6.60150376,16.9884712 C6.33082707,16.9884712 6.03809524,16.966416 5.72330827,16.8982456 C5.43057644,16.8531328 5.13884712,16.718797 4.89122807,16.5162907 C4.62055138,16.3358396 4.44110276,16.0661654 4.32882206,15.7503759 L4.21553885,15.4586466 C4.12631579,15.2781955 3.99097744,15.0536341 3.81052632,14.8280702 C3.63107769,14.5804511 3.45062657,14.4230576 3.27117794,14.3558897 L3.18095238,14.2887218 C3.11378446,14.243609 3.06867168,14.1984962 3.0235589,14.1303258 C2.97844612,14.0862155 2.93333333,14.0180451 2.91027569,13.9508772 C2.88822055,13.9057644 2.91027569,13.8606516 2.97844612,13.8155388 C3.0235589,13.7704261 3.15789474,13.7483709 3.33834586,13.7483709 L3.58596491,13.7934837 C3.7433584,13.8385965 3.9679198,13.9278195 4.19348371,14.0862155 C4.44110276,14.2656642 4.64360902,14.4912281 4.82305764,14.7378446 C5.00350877,15.0987469 5.22807018,15.3453634 5.52080201,15.5258145 C5.7914787,15.7062657 6.06115288,15.7954887 6.33082707,15.7954887 C6.60150376,15.7954887 6.8481203,15.7734336 7.05162907,15.7503759 C7.25313283,15.7062657 7.43358396,15.6380952 7.61403509,15.5478697 C7.68120301,14.9854637 7.88370927,14.558396 8.22155388,14.2656642 C7.74837093,14.1984962 7.32130326,14.1303258 6.93834586,14.0411028 C6.55639098,13.9278195 6.17343358,13.7704261 5.76842105,13.5458647 C5.36340852,13.3203008 5.02556391,13.0285714 4.75588972,12.712782 C4.48621554,12.3759398 4.26065163,11.9258145 4.08120301,11.3854637 C3.92380952,10.8451128 3.83358396,10.2155388 3.83358396,9.49573935 C3.83358396,8.48320802 4.17142857,7.62807018 4.82305764,6.90726817 C4.50827068,6.14235589 4.55338346,5.28721805 4.91328321,4.34285714 C5.16090226,4.27468672 5.52080201,4.34285714 5.99398496,4.52230576 C6.46616541,4.70275689 6.82606516,4.86015038 7.05162907,4.99448622 C7.25313283,5.12982456 7.43358396,5.24210526 7.56892231,5.35538847 C8.35588972,5.12982456 9.16591479,5.01754386 9.99899749,5.01754386 C10.8090226,5.01754386 11.6190476,5.12982456 12.4070175,5.35538847 L12.879198,5.039599 C13.193985,4.83709273 13.5989975,4.65764411 14.0270677,4.50025063 C14.477193,4.3197995 14.8140351,4.27468672 15.039599,4.34285714 C15.4215539,5.28721805 15.4666667,6.14235589 15.1518797,6.90726817 C15.8045113,7.62807018 16.1423559,8.48320802 16.1423559,9.49573935 C16.1423559,10.2155388 16.0521303,10.8451128 15.8947368,11.3854637 C15.7142857,11.9478697 15.4897243,12.3759398 15.2190476,12.712782 C14.9493734,13.0285714 14.6115288,13.3203008 14.2065163,13.5458647 C13.8015038,13.7704261 13.3964912,13.9278195 13.0145363,14.0411028 C12.6315789,14.1303258 12.2045113,14.1984962 11.7313283,14.2656642 C12.1593985,14.6255639 12.3839599,15.2330827 12.3839599,16.0431078 L12.3839599,18.6987469 C12.3839599,18.8340852 12.4290727,18.9684211 12.5413534,19.0586466 C12.6546366,19.1709273 12.8120301,19.193985 13.0365915,19.1488722 C14.9714286,18.5182957 16.5694236,17.3483709 17.7844612,15.6611529 C19.0225564,13.99599 19.6300752,12.1052632 19.6300752,10.0130326 C19.6300752,8.25764411 19.202005,6.63759398 18.3468672,5.15288221 C17.4696742,3.69022556 16.2997494,2.51929825 14.8370927,1.64210526 C13.3513784,0.786967419 11.7313283,0.359899749 9.99899749,0.359899749 C8.24360902,0.359899749 6.6235589,0.786967419 5.13884712,1.64210526 C3.67619048,2.51929825 2.50626566,3.69022556 1.62807018,5.15288221 C0.772932331,6.63759398 0.345864662,8.25764411 0.345864662,10.0130326 C0.345864662,12.1052632 0.953383459,13.99599 2.19047619,15.6611529" id="Fill-172"></path>
             </symbol>
             <symbol id="twitter-small" transform="translate(1.500000, 0.000000)" fill="#CECECE" sketch:type="MSShapeGroup">
                <path d="M6.31378446,16.4912281 C7.75438596,16.4912281 9.1037594,16.2666667 10.3869674,15.8165414 C11.6471178,15.3433584 12.726817,14.7358396 13.6270677,13.9709273 C14.5042607,13.206015 15.2922306,12.3288221 15.9448622,11.3383459 C16.5744361,10.3258145 17.0696742,9.29022556 17.3844612,8.21052632 C17.7002506,7.13082707 17.8576441,6.05012531 17.8576441,4.94736842 L17.8576441,4.43007519 C18.6446115,3.84561404 19.3203008,3.14786967 19.8827068,2.33784461 C19.0947368,2.65263158 18.3298246,2.87719298 17.5418546,2.94536341 C18.4200501,2.42706767 19.0275689,1.68521303 19.3203008,0.717794486 C18.5323308,1.18997494 17.677193,1.52781955 16.7548872,1.70726817 C15.9448622,0.852130326 14.954386,0.425062657 13.7844612,0.425062657 C12.6817043,0.425062657 11.7142857,0.807017544 10.9263158,1.59498747 C10.1393484,2.40501253 9.73433584,3.35037594 9.73433584,4.47518797 C9.73433584,4.7679198 9.77944862,5.08270677 9.84661654,5.39749373 C8.18145363,5.33032581 6.62857143,4.90225564 5.16591479,4.160401 C3.72631579,3.39548872 2.48822055,2.40501253 1.47568922,1.1679198 C1.11578947,1.79749373 0.913283208,2.47218045 0.913283208,3.21503759 C0.913283208,3.88972431 1.09373434,4.54235589 1.4085213,5.14987469 C1.74636591,5.73533835 2.17343358,6.2075188 2.7358396,6.59047619 C2.08320802,6.56741855 1.47568922,6.38796992 0.89122807,6.07318296 L0.89122807,6.11829574 C0.89122807,7.10776942 1.20601504,7.96290727 1.81353383,8.70576441 C2.44310777,9.44862155 3.20802005,9.89774436 4.15338346,10.1002506 C3.79348371,10.1904762 3.43358396,10.235589 3.07368421,10.235589 C2.8481203,10.235589 2.60050125,10.2135338 2.30877193,10.1684211 C2.57844612,10.9784461 3.05062657,11.6531328 3.74837093,12.1714286 C4.44611529,12.7107769 5.23408521,12.9804511 6.1112782,12.9804511 C4.62656642,14.1513784 2.96140351,14.7137845 1.07067669,14.7137845 C0.710776942,14.7137845 0.395989975,14.7137845 0.103258145,14.6686717 C1.97092732,15.8837093 4.06315789,16.4912281 6.31378446,16.4912281" id="Fill-178"></path>
             </symbol>
         </symbol>
     </symbol>
</svg>
