<?xml version="1.0" encoding="UTF-8" standalone="no"?>
<svg width="248px" height="392px" viewBox="0 0 248 392" version="1.1" xmlns="http://www.w3.org/2000/svg" xmlns:xlink="http://www.w3.org/1999/xlink" xmlns:sketch="http://www.bohemiancoding.com/sketch/ns">
    <!-- Generator: Sketch 3.3.1 (12002) - http://www.bohemiancoding.com/sketch -->
    <title>sprites</title>
    <desc>Created with Sketch.</desc>
    <defs>
      <symbol id="michelada-white-text" transform="translate(65.626925, 355.132276)" fill="#FFFFFF" sketch:type="MSShapeGroup">
          <path d="M17.968572,14.1034644 L15.5103635,14.1034644 L15.4487382,3.00574876 L9.11974156,12.1961326 L2.81035301,2.91837468 L2.74912789,3.00574876 L2.74912789,14.1034644 L0.290919356,14.1034644 L0.290919356,0.614839699 L3.98123338,0.614839699 L9.11814091,8.24295895 L14.2702547,0.614839699 L17.968572,0.614839699 L17.968572,14.1034644 L17.968572,14.1034644 Z" id="Shape"></path>
          <path d="M24.7277451,14.1034644 L22.2695365,14.1034644 L22.2695365,0.614839699 L24.7277451,0.614839699 L24.7277451,14.1034644 L24.7277451,14.1034644 Z" id="Shape"></path>
          <path d="M44.1052951,3.86137047 L41.8519706,4.69444404 C40.4998159,3.26102601 38.7863129,2.54512229 36.7106613,2.54512229 C34.920727,2.54512229 33.4945418,2.98682442 32.4293048,3.86902074 C31.3640678,4.75121706 30.8318494,5.89271709 30.8318494,7.29352083 C30.8318494,8.73821293 31.3640678,9.89742937 32.4293048,10.7731834 C33.4945418,11.6481321 34.9351329,12.0862104 36.7514781,12.0862104 C38.854741,12.0862104 40.5686441,11.3558114 41.8931876,9.89340291 L44.0028531,11.0997289 C42.145291,13.3368273 39.7086913,14.4553766 36.6910533,14.4553766 C34.1780222,14.4553766 32.1463887,13.7865824 30.596953,12.448994 C29.046717,11.1110029 28.271599,9.39694099 28.271599,7.3056002 C28.271599,5.12728797 29.1523604,3.35121861 30.9142832,1.97658683 C32.4433105,0.777105841 34.321281,0.178371962 36.5469942,0.178371962 C39.673877,0.17676138 42.1933107,1.40442755 44.1052951,3.86137047 L44.1052951,3.86137047 Z" id="Shape"></path>
          <path d="M62.1915154,14.1034644 L59.7333068,14.1034644 L59.7333068,8.26953355 L50.0037151,8.26953355 L50.0037151,14.1034644 L47.5455065,14.1034644 L47.5455065,0.614839699 L50.0037151,0.614839699 L50.0037151,5.90036735 L59.7333068,5.90036735 L59.7333068,0.614839699 L62.1915154,0.614839699 L62.1915154,14.1034644 L62.1915154,14.1034644 Z" id="Shape"></path>
          <path d="M80.0532435,14.1034644 L66.4932803,14.1034644 L66.4932803,0.614839699 L79.5822503,0.614839699 L79.5822503,2.9840059 L68.9510886,2.9840059 L68.9510886,5.90036735 L76.3457224,5.90036735 L76.3457224,8.26953355 L68.9510886,8.26953355 L68.9510886,11.7342982 L80.0532435,11.7342982 L80.0532435,14.1034644 L80.0532435,14.1034644 L80.0532435,14.1034644 Z" id="Shape"></path>
          <path d="M95.4151461,14.1034644 L83.2273458,14.1034644 L83.2273458,0.614839699 L85.6855543,0.614839699 L85.6855543,11.7342982 L95.4151461,11.7342982 L95.4151461,14.1034644 L95.4151461,14.1034644 Z" id="Shape"></path>
          <path d="M106.107933,0.614839699 L103.055081,0.614839699 L96.1934654,14.1034644 L98.9001759,14.1034644 L104.594112,2.86482283 L107.58694,8.8396796 L105.911052,8.8396796 C105.914654,9.01362246 105.901848,10.9829617 105.935862,11.2088458 L108.814243,11.2088458 L110.264038,14.1034644 L112.969548,14.1034644 L106.107933,0.614839699 L106.107933,0.614839699 Z" id="Shape"></path>
          <path d="M123.538684,0.614839699 C125.751192,0.614839699 127.52592,1.23692702 128.86527,2.47949107 C130.203419,3.72205513 130.872893,5.31653136 130.872893,7.26090654 C130.872893,9.03053358 130.169005,10.7252685 128.763628,12.3487353 C128.367465,12.817012 127.738808,13.2188522 126.879255,13.5550612 C125.937268,13.921066 124.959667,14.1034644 123.950453,14.1034644 L115.38734,14.1034644 L115.38734,0.614839699 L123.538684,0.614839699 L123.538684,0.614839699 L123.538684,0.614839699 Z M124.11212,11.7351035 C125.313813,11.7351035 126.300617,11.3308474 127.071734,10.5231405 C127.84325,9.71503095 128.229809,8.68627166 128.229809,7.43645999 C128.229809,6.09967688 127.820441,5.02300278 127.000905,4.20724297 C126.181369,3.39148316 125.08852,2.9840059 123.72356,2.9840059 L117.845148,2.9840059 L117.845148,11.7342982 L124.11212,11.7351035 L124.11212,11.7351035 Z" id="Shape"></path>
          <path d="M142.260365,0.614839699 L139.208313,0.614839699 L132.347098,14.1034644 L135.052608,14.1034644 L140.746544,2.86482283 L143.720564,8.6202378 L141.891814,8.6202378 C141.892614,8.62748542 141.843394,10.8907558 141.891814,11.3622537 L144.817815,11.3622537 L146.417671,14.1042697 L149.123581,14.1042697 L142.260365,0.614839699 L142.260365,0.614839699 Z" id="Shape"></path>
          <path d="M154.611833,14.1034644 L151.43613,14.1034644 L151.43613,11.7125553 L154.611833,11.7125553 L154.611833,14.1034644 L154.611833,14.1034644 Z" id="Shape"></path>
          <path d="M161.268564,14.1034644 L158.810755,14.1034644 L158.810755,0.614839699 L161.268564,0.614839699 L161.268564,14.1034644 L161.268564,14.1034644 Z" id="Shape"></path>
          <path d="M181.382816,7.32653776 C181.382816,9.53384047 180.502455,11.3328606 178.740132,12.7211824 C177.237515,13.9053628 175.361146,14.4976544 173.107821,14.4976544 C170.854497,14.4976544 168.969723,13.9053628 167.453901,12.7211824 C165.692379,11.3473559 164.811217,9.54833571 164.811217,7.32653776 C164.811217,5.13292501 165.699182,3.34960803 167.47391,1.97497624 C169.031349,0.76100002 170.908119,0.154615877 173.107021,0.154615877 C175.291517,0.154615877 177.162685,0.761805311 178.719323,1.97497624 C180.495652,3.36410326 181.382816,5.14822553 181.382816,7.32653776 L181.382816,7.32653776 Z M178.822966,7.31526369 C178.822966,5.92331815 178.289147,4.77658373 177.222709,3.87546307 C176.155471,2.97434241 174.780107,2.52297679 173.097417,2.52297679 C171.401521,2.52297679 170.016553,2.97756357 168.942112,3.88713979 C167.867271,4.79591071 167.331451,5.93861868 167.331451,7.31606898 C167.331451,8.75270817 167.857667,9.91393783 168.911299,10.8005633 C169.964932,11.6875913 171.360304,12.1305014 173.097417,12.1305014 C174.821724,12.1305014 176.206692,11.6875913 177.253522,10.8005633 C178.299951,9.91313254 178.822966,8.75190288 178.822966,7.31526369 L178.822966,7.31526369 Z" id="Shape"></path>
      </symbol>
      <symbol id="michelada-white-logo" transform="translate(0.000000, 335.000000)" sketch:type="MSShapeGroup">
          <path d="M26.4783654,0.0818147915 L0.198089662,13.5291392 C0.198089662,13.5291392 0.183627785,44.1889928 0.139100426,45.002159 C0.98778428,45.6484384 26.0093058,55.4941875 26.0093058,55.4941875 C26.0093058,55.4941875 53.9386162,45.5731381 54.1294749,45.0023506 C54.5060546,43.7607584 54.0702954,14.661134 54.0702954,14.661134 C54.0702954,14.661134 29.2872045,1.84169502 26.0424159,0.0718513977" id="Shape" stroke="#FFFFFF" stroke-width="1.2"></path>
          <path d="M52.028126,16.233051 C52.2309729,20.7525997 52.0671351,41.0187175 52.0066235,42.8565804 C49.2733287,35.9588463 42.0218389,22.1528397 42.0218389,22.1528397 L26.0496469,28.9865782" id="Shape" stroke="#FFFFFF"></path>
          <path d="M6.02223019,33.9648263 L17.5772702,37.3826536" id="Shape" stroke="#FFFFFF"></path>
          <path d="M17.3808931,37.4274888 L26.1497383,28.9319712" id="Shape" stroke="#FFFFFF"></path>
          <path d="M47.162846,32.1765887 L36.4412669,37.4414759" id="Shape" stroke="#FFFFFF"></path>
          <path d="M36.6425914,37.4376438 L25.9124493,28.9281391" id="Shape" stroke="#FFFFFF"></path>
          <path d="M52.0319318,16.233051 L39.8268685,10.3876045 L26.0441285,28.7535881 L12.2611982,10.3285905 C12.2611982,10.3285905 3.88358493,14.4484539 2.15919634,15.2575964 C2.21856616,19.8474637 2.15786433,41.6149883 2.21856616,43.4528512 C4.95205126,36.5551171 11.0880736,21.6525624 11.0880736,21.6525624 L26.0439382,28.9900271 L52.0256523,16.2342006" id="Shape" fill="#FFFFFF"></path>
      </symbol>
      <symbol id="michelada-orange-text" transform="translate(65.626925, 269.008209)" fill="#F15B29" sketch:type="MSShapeGroup">
          <path d="M17.968572,14.0165506 L15.5103635,14.0165506 L15.4487382,2.98722557 L9.11974156,12.1209729 L2.81035301,2.90038995 L2.74912789,2.98722557 L2.74912789,14.0165506 L0.290919356,14.0165506 L0.290919356,0.611050696 L3.98123338,0.611050696 L9.11814091,8.19216101 L14.2702547,0.611050696 L17.968572,0.611050696 L17.968572,14.0165506 L17.968572,14.0165506 Z" id="Shape"></path>
          <path d="M24.7277451,14.0165506 L22.2695365,14.0165506 L22.2695365,0.611050696 L24.7277451,0.611050696 L24.7277451,14.0165506 L24.7277451,14.0165506 Z" id="Shape"></path>
          <path d="M44.1052951,3.83757445 L41.8519706,4.66551412 C40.4998159,3.24092966 38.7863129,2.52943775 36.7106613,2.52943775 C34.920727,2.52943775 33.4945418,2.96841786 32.4293048,3.84517756 C31.3640678,4.72193727 30.8318494,5.85640271 30.8318494,7.24857388 C30.8318494,8.68436294 31.3640678,9.8364356 32.4293048,10.7067927 C33.4945418,11.5763494 34.9351329,12.0117281 36.7514781,12.0117281 C38.854741,12.0117281 40.5686441,11.2858302 41.8931876,9.83243396 L44.0028531,11.0313258 C42.145291,13.254638 39.7086913,14.3662941 36.6910533,14.3662941 C34.1780222,14.3662941 32.1463887,13.7016214 30.596953,12.372276 C29.046717,11.0425304 28.271599,9.33903153 28.271599,7.2605788 C28.271599,5.09569061 29.1523604,3.33056643 30.9142832,1.96440594 C32.4433105,0.772316859 34.321281,0.17727273 36.5469942,0.17727273 C39.673877,0.175672073 42.1933107,1.39577264 44.1052951,3.83757445 L44.1052951,3.83757445 Z" id="Shape"></path>
          <path d="M62.1915154,14.0165506 L59.7333068,14.0165506 L59.7333068,8.21857184 L50.0037151,8.21857184 L50.0037151,14.0165506 L47.5455065,14.0165506 L47.5455065,0.611050696 L50.0037151,0.611050696 L50.0037151,5.86400583 L59.7333068,5.86400583 L59.7333068,0.611050696 L62.1915154,0.611050696 L62.1915154,14.0165506 L62.1915154,14.0165506 Z" id="Shape"></path>
          <path d="M80.0532435,14.0165506 L66.4932803,14.0165506 L66.4932803,0.611050696 L79.5822503,0.611050696 L79.5822503,2.96561671 L68.9510886,2.96561671 L68.9510886,5.86400583 L76.3457224,5.86400583 L76.3457224,8.21857184 L68.9510886,8.21857184 L68.9510886,11.6619846 L80.0532435,11.6619846 L80.0532435,14.0165506 L80.0532435,14.0165506 L80.0532435,14.0165506 Z" id="Shape"></path>
          <path d="M95.4151461,14.0165506 L83.2273458,14.0165506 L83.2273458,0.611050696 L85.6855543,0.611050696 L85.6855543,11.6619846 L95.4151461,11.6619846 L95.4151461,14.0165506 L95.4151461,14.0165506 Z" id="Shape"></path>
          <path d="M106.107933,0.611050696 L103.055081,0.611050696 L96.1934654,14.0165506 L98.9001759,14.0165506 L104.594112,2.84716811 L107.58694,8.78520431 L105.911052,8.78520431 C105.914654,8.95807524 105.901848,10.9152782 105.935862,11.1397703 L108.814243,11.1397703 L110.264038,14.0165506 L112.969548,14.0165506 L106.107933,0.611050696 L106.107933,0.611050696 Z" id="Shape"></path>
          <path d="M123.538684,0.611050696 C125.751192,0.611050696 127.52592,1.22930435 128.86527,2.46421099 C130.203419,3.69911764 130.872893,5.28376778 130.872893,7.21616058 C130.872893,8.97488213 130.169005,10.6591731 128.763628,12.2726351 C128.367465,12.738026 127.738808,13.1373899 126.879255,13.471527 C125.937268,13.8352762 124.959667,14.0165506 123.950453,14.0165506 L115.38734,14.0165506 L115.38734,0.611050696 L123.538684,0.611050696 L123.538684,0.611050696 L123.538684,0.611050696 Z M124.11212,11.6627849 C125.313813,11.6627849 126.300617,11.2610201 127.071734,10.4582907 C127.84325,9.65516123 128.229809,8.63274176 128.229809,7.39063216 C128.229809,6.0620871 127.820441,4.99204809 127.000905,4.18131547 C126.181369,3.37058285 125.08852,2.96561671 123.72356,2.96561671 L117.845148,2.96561671 L117.845148,11.6619846 L124.11212,11.6627849 L124.11212,11.6627849 Z" id="Shape"></path>
          <path d="M142.260365,0.611050696 L139.208313,0.611050696 L132.347098,14.0165506 L135.052608,14.0165506 L140.746544,2.84716811 L143.720564,8.56711484 L141.891814,8.56711484 C141.892614,8.57431779 141.843394,10.8236406 141.891814,11.2922329 L144.817815,11.2922329 L146.417671,14.0173509 L149.123581,14.0173509 L142.260365,0.611050696 L142.260365,0.611050696 Z" id="Shape"></path>
          <path d="M154.611833,14.0165506 L151.43613,14.0165506 L151.43613,11.6403757 L154.611833,11.6403757 L154.611833,14.0165506 L154.611833,14.0165506 Z" id="Shape"></path>
          <path d="M161.268564,14.0165506 L158.810755,14.0165506 L158.810755,0.611050696 L161.268564,0.611050696 L161.268564,14.0165506 L161.268564,14.0165506 Z" id="Shape"></path>
          <path d="M181.382816,7.28138734 C181.382816,9.47508735 180.502455,11.2630209 178.740132,12.642787 C177.237515,13.8196698 175.361146,14.4083113 173.107821,14.4083113 C170.854497,14.4083113 168.969723,13.8196698 167.453901,12.642787 C165.692379,11.2774268 164.811217,9.48949326 164.811217,7.28138734 C164.811217,5.10129291 165.699182,3.32896578 167.47391,1.96280528 C169.031349,0.756310292 170.908119,0.153663043 173.107021,0.153663043 C175.291517,0.153663043 177.162685,0.75711062 178.719323,1.96280528 C180.495652,3.34337169 181.382816,5.11649915 181.382816,7.28138734 L181.382816,7.28138734 Z M178.822966,7.27018274 C178.822966,5.88681519 178.289147,4.74714762 177.222709,3.85158019 C176.155471,2.95601277 174.780107,2.50742873 173.097417,2.50742873 C171.401521,2.50742873 170.016553,2.95921408 168.942112,3.86318495 C167.867271,4.7663555 167.331451,5.90202143 167.331451,7.27098307 C167.331451,8.69876885 167.857667,9.85284233 168.911299,10.7340038 C169.964932,11.6155655 171.360304,12.0557461 173.097417,12.0557461 C174.821724,12.0557461 176.206692,11.6155655 177.253522,10.7340038 C178.299951,9.85204201 178.822966,8.69796852 178.822966,7.27018274 L178.822966,7.27018274 Z" id="Shape"></path>
      </symbol>
      <symbol id="michelada-orange-logo" transform="translate(0.000000, 249.000000)" sketch:type="MSShapeGroup">
          <path d="M26.4783654,0.0813106008 L0.198089662,13.4457647 C0.198089662,13.4457647 0.183627785,43.9166743 0.139100426,44.7248293 C0.98778428,45.3671259 26.0093058,55.1521998 26.0093058,55.1521998 C26.0093058,55.1521998 53.9386162,45.2922897 54.1294749,44.7250197 C54.5060546,43.491079 54.0702954,14.5707835 54.0702954,14.5707835 C54.0702954,14.5707835 29.2872045,1.83034542 26.0424159,0.0714086072" id="Shape" stroke="#F15B29" fill="#FFFFFF"></path>
          <path d="M52.028126,16.1330134 C52.2309729,20.62471 52.0671351,40.7659361 52.0066235,42.5924731 C49.2733287,35.7372468 42.0218389,22.0163209 42.0218389,22.0163209 L26.0496469,28.807946" id="Shape" fill="#BC2026"></path>
          <path d="M6.02223019,33.7555151 L17.5772702,37.1522797" id="Shape" stroke="#BC2227"></path>
          <path d="M17.3808931,37.1968387 L26.1497383,28.7536754" id="Shape" stroke="#BC2227"></path>
          <path d="M47.162846,31.9782977 L36.4412669,37.2107396" id="Shape" stroke="#BC2227"></path>
          <path d="M36.6425914,37.2069311 L25.9124493,28.749867" id="Shape" stroke="#BC2227"></path>
          <path d="M52.0319318,16.1330134 L39.8268685,10.32359 L26.0441285,28.5763916 L12.2611982,10.2649397 C12.2611982,10.2649397 3.88358493,14.359414 2.15919634,15.1635701 C2.21856616,19.725152 2.15786433,41.3585323 2.21856616,43.1850693 C4.95205126,36.329843 11.0880736,21.5191266 11.0880736,21.5191266 L26.0439382,28.8113736 L52.0256523,16.1341559" id="Shape" fill="#F15A29"></path>
      </symbol>
      <symbol id="github" transform="translate(0.500000, 91.000000)" sketch:type="MSShapeGroup">
          <path d="M3.28571429,23.4917293 C5.10827068,26.0225564 7.50526316,27.7774436 10.4075188,28.7233083 C10.7458647,28.7909774 10.9819549,28.756391 11.1503759,28.5879699 C11.318797,28.4526316 11.3864662,28.2511278 11.3864662,28.0481203 L11.3864662,27.0345865 L11.3864662,25.3473684 L10.9473684,25.4150376 C10.6781955,25.4827068 10.3398496,25.4827068 9.90225564,25.4827068 C9.4962406,25.4827068 9.05714286,25.4496241 8.58496241,25.3473684 C8.14586466,25.2796992 7.70827068,25.0781955 7.33684211,24.7744361 C6.93082707,24.5037594 6.66165414,24.0992481 6.49323308,23.6255639 L6.32330827,23.1879699 C6.18947368,22.9172932 5.98646617,22.5804511 5.71578947,22.2421053 C5.44661654,21.8706767 5.17593985,21.6345865 4.90676692,21.5338346 L4.77142857,21.4330827 C4.67067669,21.3654135 4.60300752,21.2977444 4.53533835,21.1954887 C4.46766917,21.1293233 4.4,21.0270677 4.36541353,20.9263158 C4.33233083,20.8586466 4.36541353,20.7909774 4.46766917,20.7233083 C4.53533835,20.6556391 4.73684211,20.6225564 5.0075188,20.6225564 L5.37894737,20.6902256 C5.61503759,20.7578947 5.9518797,20.8917293 6.29022556,21.1293233 C6.66165414,21.3984962 6.96541353,21.7368421 7.23458647,22.1067669 C7.50526316,22.6481203 7.84210526,23.0180451 8.28120301,23.2887218 C8.68721805,23.5593985 9.09172932,23.6932331 9.4962406,23.6932331 C9.90225564,23.6932331 10.2721805,23.6601504 10.5774436,23.6255639 C10.8796992,23.5593985 11.1503759,23.4571429 11.4210526,23.3218045 C11.5218045,22.4781955 11.8255639,21.837594 12.3323308,21.3984962 C11.6225564,21.2977444 10.9819549,21.1954887 10.4075188,21.0616541 C9.83458647,20.8917293 9.26015038,20.6556391 8.65263158,20.318797 C8.04511278,19.9804511 7.53834586,19.5428571 7.13383459,19.0691729 C6.72932331,18.5639098 6.39097744,17.8887218 6.12180451,17.0781955 C5.88571429,16.2676692 5.75037594,15.3233083 5.75037594,14.243609 C5.75037594,12.724812 6.25714286,11.4421053 7.23458647,10.3609023 C6.76240602,9.21353383 6.83007519,7.93082707 7.36992481,6.51428571 C7.74135338,6.41203008 8.28120301,6.51428571 8.99097744,6.78345865 C9.69924812,7.05413534 10.2390977,7.29022556 10.5774436,7.49172932 C10.8796992,7.69473684 11.1503759,7.86315789 11.3533835,8.03308271 C12.5338346,7.69473684 13.7488722,7.52631579 14.9984962,7.52631579 C16.2135338,7.52631579 17.4285714,7.69473684 18.6105263,8.03308271 L19.318797,7.5593985 C19.7909774,7.2556391 20.3984962,6.98646617 21.0406015,6.75037594 C21.7157895,6.47969925 22.2210526,6.41203008 22.5593985,6.51428571 C23.1323308,7.93082707 23.2,9.21353383 22.7278195,10.3609023 C23.7067669,11.4421053 24.2135338,12.724812 24.2135338,14.243609 C24.2135338,15.3233083 24.0781955,16.2676692 23.8421053,17.0781955 C23.5714286,17.9218045 23.2345865,18.5639098 22.8285714,19.0691729 C22.4240602,19.5428571 21.9172932,19.9804511 21.3097744,20.318797 C20.7022556,20.6556391 20.0947368,20.8917293 19.5218045,21.0616541 C18.9473684,21.1954887 18.3067669,21.2977444 17.5969925,21.3984962 C18.2390977,21.9383459 18.5759398,22.8496241 18.5759398,24.0646617 L18.5759398,28.0481203 C18.5759398,28.2511278 18.643609,28.4526316 18.8120301,28.5879699 C18.9819549,28.756391 19.2180451,28.7909774 19.5548872,28.7233083 C22.4571429,27.7774436 24.8541353,26.0225564 26.6766917,23.4917293 C28.5338346,20.993985 29.4451128,18.1578947 29.4451128,15.0195489 C29.4451128,12.3864662 28.8030075,9.95639098 27.5203008,7.72932331 C26.2045113,5.53533835 24.4496241,3.77894737 22.2556391,2.46315789 C20.0270677,1.18045113 17.5969925,0.539849624 14.9984962,0.539849624 C12.3654135,0.539849624 9.93533835,1.18045113 7.70827068,2.46315789 C5.51428571,3.77894737 3.7593985,5.53533835 2.44210526,7.72932331 C1.1593985,9.95639098 0.518796992,12.3864662 0.518796992,15.0195489 C0.518796992,18.1578947 1.43007519,20.993985 3.28571429,23.4917293" id="Fill-172"></path>
      </symbol>
      <symbol id="map-marker" transform="translate(5.500000, 141.000000)" sketch:type="MSShapeGroup">
          <path d="M0.721804511,13.6541353 L7.6075188,28.2360902 C7.81052632,28.675188 8.11428571,28.9789474 8.48571429,29.2150376 C8.89022556,29.4511278 9.32932331,29.5864662 9.76842105,29.5864662 C10.2075188,29.5864662 10.6451128,29.4511278 11.0511278,29.2150376 C11.4225564,28.9789474 11.7263158,28.675188 11.9278195,28.2360902 L18.8135338,13.6541353 C19.2195489,12.7774436 19.4210526,11.6631579 19.4210526,10.2796992 C19.4210526,7.64661654 18.4766917,5.3518797 16.5864662,3.49473684 C14.6962406,1.60451128 12.4345865,0.660150376 9.76842105,0.660150376 C7.10225564,0.660150376 4.8406015,1.60451128 2.95037594,3.49473684 C1.06015038,5.3518797 0.114285714,7.64661654 0.114285714,10.2796992 C0.114285714,11.6631579 0.317293233,12.7774436 0.721804511,13.6541353 L0.721804511,13.6541353 Z M9.76842105,5.48721805 C11.0842105,5.48721805 12.2315789,5.9593985 13.1774436,6.9037594 C14.1218045,7.84962406 14.5954887,8.96240602 14.5954887,10.2796992 C14.5954887,11.6285714 14.1218045,12.7428571 13.1774436,13.6887218 C12.2315789,14.6330827 11.0842105,15.1052632 9.76842105,15.1052632 C8.45112782,15.1052632 7.3037594,14.6330827 6.3593985,13.6887218 C5.41353383,12.7428571 4.94135338,11.6285714 4.94135338,10.2796992 C4.94135338,8.96240602 5.41353383,7.84962406 6.3593985,6.9037594 C7.3037594,5.9593985 8.45112782,5.48721805 9.76842105,5.48721805 L9.76842105,5.48721805 Z" id="Fill-30"></path>
      </symbol>
      <symbol id="twitter" transform="translate(0.500000, 192.000000)" sketch:type="MSShapeGroup">
          <path d="M9.47067669,24.7368421 C11.6315789,24.7368421 13.6556391,24.4 15.5804511,23.724812 C17.4706767,23.0150376 19.0902256,22.1037594 20.4406015,20.956391 C21.756391,19.8090226 22.9383459,18.4932331 23.9172932,17.0075188 C24.8616541,15.4887218 25.6045113,13.9353383 26.0766917,12.3157895 C26.5503759,10.6962406 26.7864662,9.07518797 26.7864662,7.42105263 L26.7864662,6.64511278 C27.9669173,5.76842105 28.9804511,4.72180451 29.8240602,3.50676692 C28.6421053,3.97894737 27.4947368,4.31578947 26.312782,4.41804511 C27.6300752,3.6406015 28.5413534,2.52781955 28.9804511,1.07669173 C27.7984962,1.78496241 26.5157895,2.29172932 25.1323308,2.56090226 C23.9172932,1.27819549 22.4315789,0.637593985 20.6766917,0.637593985 C19.0225564,0.637593985 17.5714286,1.21052632 16.3894737,2.3924812 C15.2090226,3.6075188 14.6015038,5.02556391 14.6015038,6.71278195 C14.6015038,7.1518797 14.6691729,7.62406015 14.7699248,8.0962406 C12.2721805,7.99548872 9.94285714,7.35338346 7.74887218,6.2406015 C5.58947368,5.09323308 3.73233083,3.6075188 2.21353383,1.7518797 C1.67368421,2.6962406 1.36992481,3.70827068 1.36992481,4.82255639 C1.36992481,5.83458647 1.6406015,6.81353383 2.11278195,7.72481203 C2.61954887,8.60300752 3.26015038,9.3112782 4.1037594,9.88571429 C3.12481203,9.85112782 2.21353383,9.58195489 1.33684211,9.10977444 L1.33684211,9.17744361 C1.33684211,10.6616541 1.80902256,11.9443609 2.72030075,13.0586466 C3.66466165,14.1729323 4.81203008,14.8466165 6.23007519,15.1503759 C5.69022556,15.2857143 5.15037594,15.3533835 4.61052632,15.3533835 C4.27218045,15.3533835 3.90075188,15.3203008 3.46315789,15.2526316 C3.86766917,16.4676692 4.57593985,17.4796992 5.62255639,18.2571429 C6.66917293,19.0661654 7.85112782,19.4706767 9.16691729,19.4706767 C6.93984962,21.2270677 4.44210526,22.0706767 1.60601504,22.0706767 C1.06616541,22.0706767 0.593984962,22.0706767 0.154887218,22.0030075 C2.95639098,23.8255639 6.09473684,24.7368421 9.47067669,24.7368421" id="Fill-178"></path>
      </symbol>
      <symbol id="github-small" transform="translate(0.500000, 44.000000)" sketch:type="MSShapeGroup">
          <path d="M2.19047619,15.6611529 C3.40551378,17.3483709 5.00350877,18.5182957 6.93834586,19.1488722 C7.16390977,19.193985 7.32130326,19.1709273 7.43358396,19.0586466 C7.54586466,18.9684211 7.59097744,18.8340852 7.59097744,18.6987469 L7.59097744,18.0230576 L7.59097744,16.8982456 L7.29824561,16.9433584 C7.11879699,16.9884712 6.89323308,16.9884712 6.60150376,16.9884712 C6.33082707,16.9884712 6.03809524,16.966416 5.72330827,16.8982456 C5.43057644,16.8531328 5.13884712,16.718797 4.89122807,16.5162907 C4.62055138,16.3358396 4.44110276,16.0661654 4.32882206,15.7503759 L4.21553885,15.4586466 C4.12631579,15.2781955 3.99097744,15.0536341 3.81052632,14.8280702 C3.63107769,14.5804511 3.45062657,14.4230576 3.27117794,14.3558897 L3.18095238,14.2887218 C3.11378446,14.243609 3.06867168,14.1984962 3.0235589,14.1303258 C2.97844612,14.0862155 2.93333333,14.0180451 2.91027569,13.9508772 C2.88822055,13.9057644 2.91027569,13.8606516 2.97844612,13.8155388 C3.0235589,13.7704261 3.15789474,13.7483709 3.33834586,13.7483709 L3.58596491,13.7934837 C3.7433584,13.8385965 3.9679198,13.9278195 4.19348371,14.0862155 C4.44110276,14.2656642 4.64360902,14.4912281 4.82305764,14.7378446 C5.00350877,15.0987469 5.22807018,15.3453634 5.52080201,15.5258145 C5.7914787,15.7062657 6.06115288,15.7954887 6.33082707,15.7954887 C6.60150376,15.7954887 6.8481203,15.7734336 7.05162907,15.7503759 C7.25313283,15.7062657 7.43358396,15.6380952 7.61403509,15.5478697 C7.68120301,14.9854637 7.88370927,14.558396 8.22155388,14.2656642 C7.74837093,14.1984962 7.32130326,14.1303258 6.93834586,14.0411028 C6.55639098,13.9278195 6.17343358,13.7704261 5.76842105,13.5458647 C5.36340852,13.3203008 5.02556391,13.0285714 4.75588972,12.712782 C4.48621554,12.3759398 4.26065163,11.9258145 4.08120301,11.3854637 C3.92380952,10.8451128 3.83358396,10.2155388 3.83358396,9.49573935 C3.83358396,8.48320802 4.17142857,7.62807018 4.82305764,6.90726817 C4.50827068,6.14235589 4.55338346,5.28721805 4.91328321,4.34285714 C5.16090226,4.27468672 5.52080201,4.34285714 5.99398496,4.52230576 C6.46616541,4.70275689 6.82606516,4.86015038 7.05162907,4.99448622 C7.25313283,5.12982456 7.43358396,5.24210526 7.56892231,5.35538847 C8.35588972,5.12982456 9.16591479,5.01754386 9.99899749,5.01754386 C10.8090226,5.01754386 11.6190476,5.12982456 12.4070175,5.35538847 L12.879198,5.039599 C13.193985,4.83709273 13.5989975,4.65764411 14.0270677,4.50025063 C14.477193,4.3197995 14.8140351,4.27468672 15.039599,4.34285714 C15.4215539,5.28721805 15.4666667,6.14235589 15.1518797,6.90726817 C15.8045113,7.62807018 16.1423559,8.48320802 16.1423559,9.49573935 C16.1423559,10.2155388 16.0521303,10.8451128 15.8947368,11.3854637 C15.7142857,11.9478697 15.4897243,12.3759398 15.2190476,12.712782 C14.9493734,13.0285714 14.6115288,13.3203008 14.2065163,13.5458647 C13.8015038,13.7704261 13.3964912,13.9278195 13.0145363,14.0411028 C12.6315789,14.1303258 12.2045113,14.1984962 11.7313283,14.2656642 C12.1593985,14.6255639 12.3839599,15.2330827 12.3839599,16.0431078 L12.3839599,18.6987469 C12.3839599,18.8340852 12.4290727,18.9684211 12.5413534,19.0586466 C12.6546366,19.1709273 12.8120301,19.193985 13.0365915,19.1488722 C14.9714286,18.5182957 16.5694236,17.3483709 17.7844612,15.6611529 C19.0225564,13.99599 19.6300752,12.1052632 19.6300752,10.0130326 C19.6300752,8.25764411 19.202005,6.63759398 18.3468672,5.15288221 C17.4696742,3.69022556 16.2997494,2.51929825 14.8370927,1.64210526 C13.3513784,0.786967419 11.7313283,0.359899749 9.99899749,0.359899749 C8.24360902,0.359899749 6.6235589,0.786967419 5.13884712,1.64210526 C3.67619048,2.51929825 2.50626566,3.69022556 1.62807018,5.15288221 C0.772932331,6.63759398 0.345864662,8.25764411 0.345864662,10.0130326 C0.345864662,12.1052632 0.953383459,13.99599 2.19047619,15.6611529" id="Fill-172"></path>
      </symbol>
      <symbol id="twitter-small" transform="translate(0.500000, 0.000000)" sketch:type="MSShapeGroup">
          <path d="M6.31378446,16.4912281 C7.75438596,16.4912281 9.1037594,16.2666667 10.3869674,15.8165414 C11.6471178,15.3433584 12.726817,14.7358396 13.6270677,13.9709273 C14.5042607,13.206015 15.2922306,12.3288221 15.9448622,11.3383459 C16.5744361,10.3258145 17.0696742,9.29022556 17.3844612,8.21052632 C17.7002506,7.13082707 17.8576441,6.05012531 17.8576441,4.94736842 L17.8576441,4.43007519 C18.6446115,3.84561404 19.3203008,3.14786967 19.8827068,2.33784461 C19.0947368,2.65263158 18.3298246,2.87719298 17.5418546,2.94536341 C18.4200501,2.42706767 19.0275689,1.68521303 19.3203008,0.717794486 C18.5323308,1.18997494 17.677193,1.52781955 16.7548872,1.70726817 C15.9448622,0.852130326 14.954386,0.425062657 13.7844612,0.425062657 C12.6817043,0.425062657 11.7142857,0.807017544 10.9263158,1.59498747 C10.1393484,2.40501253 9.73433584,3.35037594 9.73433584,4.47518797 C9.73433584,4.7679198 9.77944862,5.08270677 9.84661654,5.39749373 C8.18145363,5.33032581 6.62857143,4.90225564 5.16591479,4.160401 C3.72631579,3.39548872 2.48822055,2.40501253 1.47568922,1.1679198 C1.11578947,1.79749373 0.913283208,2.47218045 0.913283208,3.21503759 C0.913283208,3.88972431 1.09373434,4.54235589 1.4085213,5.14987469 C1.74636591,5.73533835 2.17343358,6.2075188 2.7358396,6.59047619 C2.08320802,6.56741855 1.47568922,6.38796992 0.89122807,6.07318296 L0.89122807,6.11829574 C0.89122807,7.10776942 1.20601504,7.96290727 1.81353383,8.70576441 C2.44310777,9.44862155 3.20802005,9.89774436 4.15338346,10.1002506 C3.79348371,10.1904762 3.43358396,10.235589 3.07368421,10.235589 C2.8481203,10.235589 2.60050125,10.2135338 2.30877193,10.1684211 C2.57844612,10.9784461 3.05062657,11.6531328 3.74837093,12.1714286 C4.44611529,12.7107769 5.23408521,12.9804511 6.1112782,12.9804511 C4.62656642,14.1513784 2.96140351,14.7137845 1.07067669,14.7137845 C0.710776942,14.7137845 0.395989975,14.7137845 0.103258145,14.6686717 C1.97092732,15.8837093 4.06315789,16.4912281 6.31378446,16.4912281" id="Fill-178"></path>
      </symbol>
    </defs>
</svg>